<svg width="470" height="160" viewBox="0 0 470 160" fill="none" xmlns="http://www.w3.org/2000/svg">
<rect width="470" height="160" rx="50" fill="#FFE6E6"/>
<path d="M132.512 60.8418C138.371 60.793 142.57 64.8945 142.57 70.8027C142.57 76.6621 138.371 80.7637 132.512 80.7637C126.652 80.7637 122.453 76.6621 122.502 70.8027C122.453 64.8945 126.652 60.793 132.512 60.8418ZM132.512 64.6016C129.094 64.6016 126.652 67.043 126.652 70.8027C126.652 74.4648 129.094 76.9551 132.512 76.9551C135.881 76.9551 138.322 74.4648 138.371 70.8027C138.322 67.043 135.881 64.6016 132.512 64.6016ZM159.416 58.4492V82.2285H155.021V72.0234H149.895V81.9355H145.598V59.2305H149.895V68.166H155.021V58.4492H159.416ZM134.807 84.1328V88.918H154.875V84.1328H159.416V101.613H130.217V84.1328H134.807ZM134.807 97.8535H154.875V92.6777H134.807V97.8535ZM202.971 58.4004V102.15H198.527V58.4004H202.971ZM194.084 59.2305V100.002H189.641V78.9082H184.709C184.318 87.4531 180.656 92.7754 175.236 92.7266C169.523 92.7754 165.812 86.7695 165.812 77.2969C165.812 67.8242 169.523 61.8672 175.236 61.916C180.559 61.8672 184.172 66.9209 184.709 75.1484H189.641V59.2305H194.084ZM175.236 66.2617C172.062 66.2617 170.109 70.3145 170.109 77.2969C170.109 84.2793 172.062 88.332 175.236 88.332C178.459 88.332 180.461 84.2793 180.461 77.2969C180.461 70.3145 178.459 66.2617 175.236 66.2617ZM224.309 69.5332C224.309 77.541 228.801 85.5 235.49 88.5273L232.658 92.2383C227.678 89.748 223.942 84.792 222.014 78.8105C220.085 85.1094 216.252 90.4316 211.223 93.0684L208.293 89.3086C215.08 86.0859 219.621 77.6387 219.621 69.5332V62.0625H224.309V69.5332ZM245.012 58.4004V102.248H240.422V76.7109H230.656V72.9512H240.422V58.4004H245.012ZM303.996 92.873V96.7305H263.957V92.873H281.584V83.8887H268.547V61.3789H273.186V68.8984H294.67V61.3789H299.26V83.8887H286.174V92.873H303.996ZM273.186 80.1289H294.67V72.6582H273.186V80.1289ZM343.547 58.4004V102.15H338.859V58.4004H343.547ZM330.51 63.0879C330.51 75.8809 325.041 87.0137 310.051 94.1914L307.609 90.4316C319.255 84.8896 324.919 77.0039 325.822 66.7988H309.709V63.0879H330.51Z" fill="#C02729"/>
</svg>
