<svg width="470" height="160" viewBox="0 0 470 160" fill="none" xmlns="http://www.w3.org/2000/svg">
<rect width="470" height="160" rx="80" fill="black"/>
<path d="M227.486 58.4004V68.5078H233.834V72.3164H227.486V82.9609H222.848V58.4004H227.486ZM214.498 61.1836V64.9922H199.654V76.8574C208.175 76.833 212.984 76.5645 218.453 75.3926L218.99 79.2012C213.082 80.4219 207.906 80.7148 198.531 80.7148H195.064V61.1836H214.498ZM227.877 85.3047V89.0645H204.293V97.8535H228.658V101.613H199.654V85.3047H227.877ZM272.701 58.4004V102.15H268.014V58.4004H272.701ZM259.664 63.0879C259.664 75.8809 254.195 87.0137 239.205 94.1914L236.764 90.4316C248.409 84.8896 254.073 77.0039 254.977 66.7988H238.863V63.0879H259.664Z" fill="white"/>
</svg>
