<svg width="470" height="160" viewBox="0 0 470 160" fill="none" xmlns="http://www.w3.org/2000/svg">
<rect width="470" height="160" rx="50" fill="#FFE6E6"/>
<path d="M137.346 71.291C137.346 78.2246 141.887 85.9395 148.527 89.0645L145.891 92.6777C140.983 90.3096 137.102 85.3779 135.148 79.6406C133.122 85.915 129.021 91.3105 124.016 93.8008L121.281 90.1387C127.922 86.9648 132.756 78.7129 132.756 71.291V66.6523H122.893V62.7949H146.867V66.6523H137.346V71.291ZM156.193 58.4004V75.7344H163.225V79.6406H156.193V102.15H151.555V58.4004H156.193ZM178.654 70.3633C178.654 77.3457 181.584 84.8164 187.443 88.3809L184.855 91.9453C180.754 89.4795 177.971 85.1094 176.506 80.0312C174.87 85.5977 171.867 90.334 167.619 92.9219L164.738 89.4551C170.939 85.7441 174.162 78.0293 174.162 70.5586V62.4043H178.654V70.3633ZM202.971 58.4004V102.15H198.527V58.4004H202.971ZM193.889 59.2305V100.002H189.494V77.6387H182.707V73.7812H189.494V59.2305H193.889ZM244.768 58.4004V102.15H240.129V58.4004H244.768ZM235.881 65.334V69.0938H209.514V65.334H220.305V58.8398H224.992V65.334H235.881ZM222.746 72.2676C229.143 72.2676 233.781 76.4668 233.781 82.4238C233.781 88.4297 229.143 92.5801 222.746 92.6289C216.398 92.5801 211.76 88.4297 211.76 82.4238C211.76 76.4668 216.398 72.2676 222.746 72.2676ZM222.746 76.0762C218.938 76.0762 216.154 78.6641 216.154 82.4238C216.154 86.2324 218.938 88.7715 222.746 88.7227C226.555 88.7715 229.338 86.2324 229.338 82.4238C229.338 78.6641 226.555 76.0762 222.746 76.0762ZM303.996 92.873V96.7305H263.957V92.873H281.584V83.8887H268.547V61.3789H273.186V68.8984H294.67V61.3789H299.26V83.8887H286.174V92.873H303.996ZM273.186 80.1289H294.67V72.6582H273.186V80.1289ZM343.547 58.4004V102.15H338.859V58.4004H343.547ZM330.51 63.0879C330.51 75.8809 325.041 87.0137 310.051 94.1914L307.609 90.4316C319.255 84.8896 324.919 77.0039 325.822 66.7988H309.709V63.0879H330.51Z" fill="#C02729"/>
</svg>
