<svg width="67" height="60" viewBox="0 0 67 60" fill="none" xmlns="http://www.w3.org/2000/svg">
<path d="M9.61751 54.6439C3.28403 54.6439 0 51.3951 0 45.1317V9.5122C0 3.24878 3.28403 0 9.61751 0H45.126C51.4595 0 54.7435 3.24878 54.7435 9.5122V25.9902C53.8053 25.8146 52.8376 25.7268 51.87 25.7268C50.8731 25.7268 49.9055 25.8146 48.9965 25.9902V9.98049C48.9965 7.14146 47.4718 5.73659 44.7742 5.73659H9.96937C7.24245 5.73659 5.74705 7.14146 5.74705 9.98049V44.6341C5.74705 47.4732 7.24245 48.9073 9.96937 48.9073H33.1335C33.4853 50.9561 34.2184 52.8878 35.274 54.6439H9.61751ZM10.0573 16.8585V12.0878C10.0573 10.8293 10.849 10.039 12.1392 10.039H16.86C18.1501 10.039 18.9711 10.8293 18.9711 12.0878V16.8585C18.9711 18.1171 18.1501 18.9366 16.86 18.9366H12.1392C10.849 18.9366 10.0573 18.1171 10.0573 16.8585ZM22.9295 16.8585V12.0878C22.9295 10.8293 23.7505 10.039 25.0407 10.039H29.7322C31.0223 10.039 31.8433 10.8293 31.8433 12.0878V16.8585C31.8433 18.1171 31.0223 18.9366 29.7322 18.9366H25.0407C23.7505 18.9366 22.9295 18.1171 22.9295 16.8585ZM35.7724 16.8585V12.0878C35.7724 10.8293 36.5641 10.039 37.8836 10.039H42.5751C43.8652 10.039 44.6862 10.8293 44.6862 12.0878V16.8585C44.6862 18.1171 43.8652 18.9366 42.5751 18.9366H37.8836C36.5641 18.9366 35.7724 18.1171 35.7724 16.8585ZM10.0573 29.678V24.9073C10.0573 23.6488 10.849 22.8585 12.1392 22.8585H16.86C18.1501 22.8585 18.9711 23.6488 18.9711 24.9073V29.678C18.9711 30.9659 18.1501 31.7561 16.86 31.7561H12.1392C10.849 31.7561 10.0573 30.9659 10.0573 29.678ZM22.9295 29.678V24.9073C22.9295 23.6488 23.7212 22.8585 25.0407 22.8585H29.7322C31.0516 22.8585 31.8433 23.6488 31.8433 24.9073V29.678C31.8433 30.9659 31.0516 31.7561 29.7322 31.7561H25.0407C23.7212 31.7561 22.9295 30.9659 22.9295 29.678ZM35.7724 29.678V24.9073C35.7724 23.6488 36.5641 22.8585 37.8836 22.8585H42.5751C43.8652 22.8585 44.6862 23.6488 44.6862 24.9073V27.1317C42.1059 28.1854 39.8481 29.7659 37.9716 31.7268L37.3265 31.6976C36.3589 31.522 35.7724 30.761 35.7724 29.678ZM51.8993 60C43.6306 60 36.7987 53.2098 36.7987 44.9268C36.7987 36.6732 43.6306 29.8537 51.8993 29.8537C60.1681 29.8537 67 36.6732 67 44.9268C67 53.1512 60.0801 60 51.8993 60ZM10.0573 42.4976V37.7268C10.0573 36.4683 10.849 35.678 12.1392 35.678H16.86C18.1501 35.678 18.9711 36.4683 18.9711 37.7268V42.4976C18.9711 43.7561 18.1501 44.5756 16.86 44.5756H12.1392C10.849 44.5756 10.0573 43.7561 10.0573 42.4976ZM22.9295 42.4976V37.7268C22.9295 36.4683 23.7505 35.678 25.0407 35.678H29.7322C31.0223 35.678 31.8433 36.4683 31.8433 37.7268V42.4976C31.8433 43.7561 31.0223 44.5756 29.7322 44.5756H25.0407C23.7505 44.5756 22.9295 43.7561 22.9295 42.4976ZM60.0214 47.3854C61.3409 47.3854 62.4551 46.2439 62.4551 44.9268C62.4551 43.6098 61.3409 42.4683 60.0214 42.4683C58.6726 42.4683 57.5584 43.6098 57.5584 44.9268C57.5584 46.2439 58.6726 47.3854 60.0214 47.3854ZM43.7479 47.3854C45.0967 47.3854 46.1816 46.2439 46.2109 44.9268C46.2109 43.6098 45.0967 42.4683 43.7479 42.4683C42.4284 42.4683 41.3142 43.6098 41.3142 44.9268C41.3142 46.2439 42.4284 47.3854 43.7479 47.3854ZM51.8993 47.3854C53.2188 47.3854 54.3624 46.2439 54.3624 44.9268C54.3624 43.6098 53.2188 42.4683 51.8993 42.4683C50.5799 42.4683 49.4656 43.6098 49.4656 44.9268C49.4656 46.2439 50.5799 47.3854 51.8993 47.3854Z" fill="#5E0B0B"/>
</svg>
