<svg width="55" height="55" viewBox="0 0 55 55" fill="none" xmlns="http://www.w3.org/2000/svg">
<path d="M9.66256 55C3.29941 55 0 51.73 0 45.4258V9.57418C0 3.26995 3.29941 0 9.66256 0H45.3374C51.7006 0 55 3.29941 55 9.57418V45.4258C55 51.73 51.7006 55 45.3374 55H9.66256ZM40.9775 27.6915C42.3032 27.6915 43.3637 26.631 43.3637 25.3053V14.6411C43.3637 12.6085 42.3032 11.6952 40.4178 11.6952H29.8125C28.4869 11.6952 27.4264 12.7558 27.4264 14.1109C27.4264 15.4365 28.4869 16.4971 29.8125 16.4971H31.2266L35.557 16.1435L28.9877 22.3299C27.9566 23.3315 27.9566 25.0402 28.9877 26.0418C29.9893 27.0728 31.6979 27.1318 32.6995 26.0418L38.9154 19.4135L38.5619 23.8618V25.3053C38.5619 26.631 39.6518 27.6915 40.9775 27.6915ZM25.3053 43.3342C26.631 43.3342 27.6915 42.2737 27.6915 40.9186C27.6915 39.5929 26.631 38.5324 25.3053 38.5324H23.8913L19.5608 38.8859L26.1007 32.6995C27.1612 31.6979 27.1612 29.9893 26.1302 28.9877C25.1285 27.9566 23.4199 27.8977 22.4183 28.9877L16.2025 35.616L16.556 31.1676V29.7242C16.556 28.3985 15.466 27.338 14.1403 27.338C12.8147 27.338 11.7542 28.3985 11.7542 29.7242V40.3883C11.7542 42.421 12.8147 43.3342 14.7001 43.3342H25.3053Z" fill="white"/>
</svg>
