<svg width="72" height="62" viewBox="0 0 72 62" fill="none" xmlns="http://www.w3.org/2000/svg">
<path fill-rule="evenodd" clip-rule="evenodd" d="M29.9065 59.016C13.4043 59.016 0 45.7902 0 29.508C0 13.2257 13.4043 0 29.9065 0C46.0972 0 59.306 12.7314 59.7987 28.5897C58.8643 28.4471 57.9087 28.3731 56.9373 28.3731C46.5449 28.3731 37.9582 36.8453 37.9582 47.0993C37.9582 50.7156 39.0187 54.1029 40.8453 56.9755C37.4564 58.2925 33.7662 59.016 29.9065 59.016ZM29.9065 17.8819C31.9909 17.8819 33.699 16.168 33.699 14.1113C33.699 12.026 31.9909 10.3692 29.9065 10.3692C27.793 10.3692 26.1139 12.026 26.1139 14.1113C26.1139 16.168 27.793 17.8819 29.9065 17.8819ZM29.9065 19.7672C25.7665 19.7672 19.8315 19.0816 17.0232 18.6246C16.9404 18.6155 16.8576 18.6036 16.7739 18.5915C16.5941 18.5655 16.4101 18.5389 16.2126 18.5389C15.4888 18.5389 14.7361 19.1388 14.7361 20.1671C14.7361 20.967 15.1993 21.624 15.981 21.8239C16.594 21.994 19.7163 22.3892 22.0023 22.6785C23.1711 22.8265 24.1217 22.9468 24.4058 22.9951C25.2453 23.1665 25.7375 23.8521 25.7665 24.8518C25.7954 26.3372 25.7665 31.1362 25.3901 33.3072C25.0427 35.4781 22.495 45.9045 22.3792 46.333C22.0607 47.447 22.7266 48.4754 23.8846 48.4754C24.6953 48.4754 25.2743 48.0183 25.5638 46.9614C26.0849 44.8476 27.9088 37.6205 28.5168 35.8781C28.8642 34.6212 29.1827 34.1641 29.9065 34.1641C30.6302 34.1641 30.9197 34.6212 31.354 35.8781C31.8462 37.6205 33.728 44.8476 34.2491 46.9614C34.5097 48.0183 35.1176 48.4754 35.8993 48.4754C37.0574 48.4754 37.7232 47.447 37.4337 46.333C37.4142 46.2368 37.2678 45.6367 37.0488 44.7392C36.2922 41.639 34.6698 34.9907 34.4228 33.3072C34.0754 31.1362 34.0754 26.3372 34.0754 24.8518C34.0754 23.8521 34.5676 23.1665 35.4072 22.9951C35.6783 22.949 36.5562 22.8403 37.652 22.7046C39.9495 22.4203 43.2047 22.0173 43.8319 21.8239C44.5846 21.624 45.0768 20.967 45.0768 20.1671C45.0768 19.1388 44.2662 18.5389 43.5714 18.5389C43.3784 18.5389 43.2111 18.5643 43.0439 18.5897C42.9602 18.6024 42.8765 18.6151 42.7897 18.6246C39.9525 19.0816 34.0754 19.7672 29.9065 19.7672Z" fill="#5E0B0B"/>
<path fill-rule="evenodd" clip-rule="evenodd" d="M56.7045 62C51.5314 62 46.9135 59.403 44.1384 55.4605C42.4206 53.02 41.4089 50.0638 41.4089 46.8889C41.4089 38.6145 48.3291 31.7778 56.7045 31.7778C57.7284 31.7778 58.7306 31.88 59.7011 32.0745C66.6685 33.471 72 39.6261 72 46.8889C72 55.134 64.9908 62 56.7045 62ZM56.5296 48.9965C57.5556 48.9965 58.332 48.2662 58.3598 47.2926L58.5816 39.936C58.6093 38.7459 57.7497 37.9346 56.5296 37.9346C55.2818 37.9346 54.4221 38.773 54.4776 39.936L54.6995 47.2926C54.7272 48.2662 55.4759 48.9965 56.5296 48.9965ZM56.5296 55.4605C57.8884 55.4605 58.9975 54.4328 58.9975 53.1075C58.9975 51.8093 57.8884 50.7545 56.5296 50.7545C55.1709 50.7545 54.0617 51.7822 54.0617 53.1075C54.0617 54.4328 55.1709 55.4605 56.5296 55.4605Z" fill="#5E0B0B"/>
<path fill-rule="evenodd" clip-rule="evenodd" d="M44.1384 55.4605C46.9135 59.403 51.5314 62 56.7045 62C64.9908 62 72 55.134 72 46.8889C72 39.6261 66.6685 33.471 59.7011 32.0745C58.7306 31.88 57.7284 31.7778 56.7045 31.7778C48.3291 31.7778 41.4089 38.6145 41.4089 46.8889C41.4089 50.0638 42.4206 53.02 44.1384 55.4605ZM56.5296 48.9965C57.5556 48.9965 58.332 48.2662 58.3598 47.2926L58.5816 39.936C58.6093 38.7459 57.7497 37.9346 56.5296 37.9346C55.2818 37.9346 54.4221 38.773 54.4776 39.936L54.6995 47.2926C54.7272 48.2662 55.4759 48.9965 56.5296 48.9965ZM56.5296 55.4605C57.8884 55.4605 58.9975 54.4328 58.9975 53.1075C58.9975 51.8093 57.8884 50.7545 56.5296 50.7545C55.1709 50.7545 54.0617 51.7822 54.0617 53.1075C54.0617 54.4328 55.1709 55.4605 56.5296 55.4605Z" fill="#5E0B0B"/>
</svg>
