<svg width="46" height="57" viewBox="0 0 46 57" fill="none" xmlns="http://www.w3.org/2000/svg">
<path d="M5.15114 57C1.72905 57 0 55.3648 0 52.1944V4.77225C0 1.63525 1.76507 0 5.15114 0H13.5803C17.0023 0 18.7314 1.53513 18.7314 4.77225V52.1944C18.7314 55.3648 17.0023 57 13.5803 57H5.15114ZM32.4197 57C28.9977 57 27.2686 55.3648 27.2686 52.1944V4.77225C27.2686 1.63525 28.9977 0 32.4197 0H40.8489C44.2349 0 46 1.53513 46 4.77225V52.1944C46 55.3648 44.2349 57 40.8489 57H32.4197Z" fill="white"/>
</svg>
