<svg width="68" height="60" viewBox="0 0 68 60" fill="none" xmlns="http://www.w3.org/2000/svg">
<path d="M9.76105 54.6439C3.33304 54.6439 0 51.3951 0 45.1317V9.5122C0 3.24878 3.33304 0 9.76105 0H45.7996C52.2276 0 55.5606 3.24878 55.5606 9.5122V25.9902C54.6083 25.8146 53.6263 25.7268 52.6442 25.7268C51.6324 25.7268 50.6503 25.8146 49.7278 25.9902V9.98049C49.7278 7.14146 48.1803 5.73659 45.4425 5.73659H10.1182C7.35055 5.73659 5.83282 7.14146 5.83282 9.98049V44.6341C5.83282 47.4732 7.35055 48.9073 10.1182 48.9073H33.628C33.9851 50.9561 34.7291 52.8878 35.8004 54.6439H9.76105ZM10.2074 16.8585V12.0878C10.2074 10.8293 11.0109 10.039 12.3203 10.039H17.1116C18.421 10.039 19.2543 10.8293 19.2543 12.0878V16.8585C19.2543 18.1171 18.421 18.9366 17.1116 18.9366H12.3203C11.0109 18.9366 10.2074 18.1171 10.2074 16.8585ZM23.2718 16.8585V12.0878C23.2718 10.8293 24.105 10.039 25.4144 10.039H30.1759C31.4853 10.039 32.3186 10.8293 32.3186 12.0878V16.8585C32.3186 18.1171 31.4853 18.9366 30.1759 18.9366H25.4144C24.105 18.9366 23.2718 18.1171 23.2718 16.8585ZM36.3063 16.8585V12.0878C36.3063 10.8293 37.1098 10.039 38.449 10.039H43.2105C44.5199 10.039 45.3532 10.8293 45.3532 12.0878V16.8585C45.3532 18.1171 44.5199 18.9366 43.2105 18.9366H38.449C37.1098 18.9366 36.3063 18.1171 36.3063 16.8585ZM10.2074 29.678V24.9073C10.2074 23.6488 11.0109 22.8585 12.3203 22.8585H17.1116C18.421 22.8585 19.2543 23.6488 19.2543 24.9073V29.678C19.2543 30.9659 18.421 31.7561 17.1116 31.7561H12.3203C11.0109 31.7561 10.2074 30.9659 10.2074 29.678ZM23.2718 29.678V24.9073C23.2718 23.6488 24.0753 22.8585 25.4144 22.8585H30.1759C31.5151 22.8585 32.3186 23.6488 32.3186 24.9073V29.678C32.3186 30.9659 31.5151 31.7561 30.1759 31.7561H25.4144C24.0753 31.7561 23.2718 30.9659 23.2718 29.678ZM36.3063 29.678V24.9073C36.3063 23.6488 37.1098 22.8585 38.449 22.8585H43.2105C44.5199 22.8585 45.3532 23.6488 45.3532 24.9073V27.1317C42.7344 28.1854 40.4429 29.7659 38.5383 31.7268L37.8836 31.6976C36.9015 31.522 36.3063 30.761 36.3063 29.678ZM52.674 60C44.2818 60 37.3479 53.2098 37.3479 44.9268C37.3479 36.6732 44.2818 29.8537 52.674 29.8537C61.0661 29.8537 68 36.6732 68 44.9268C68 53.1512 60.9768 60 52.674 60ZM10.2074 42.4976V37.7268C10.2074 36.4683 11.0109 35.678 12.3203 35.678H17.1116C18.421 35.678 19.2543 36.4683 19.2543 37.7268V42.4976C19.2543 43.7561 18.421 44.5756 17.1116 44.5756H12.3203C11.0109 44.5756 10.2074 43.7561 10.2074 42.4976ZM23.2718 42.4976V37.7268C23.2718 36.4683 24.105 35.678 25.4144 35.678H30.1759C31.4853 35.678 32.3186 36.4683 32.3186 37.7268V42.4976C32.3186 43.7561 31.4853 44.5756 30.1759 44.5756H25.4144C24.105 44.5756 23.2718 43.7561 23.2718 42.4976ZM60.9173 47.3854C62.2565 47.3854 63.3873 46.2439 63.3873 44.9268C63.3873 43.6098 62.2565 42.4683 60.9173 42.4683C59.5484 42.4683 58.4175 43.6098 58.4175 44.9268C58.4175 46.2439 59.5484 47.3854 60.9173 47.3854ZM44.4009 47.3854C45.7698 47.3854 46.8709 46.2439 46.9007 44.9268C46.9007 43.6098 45.7698 42.4683 44.4009 42.4683C43.0617 42.4683 41.9309 43.6098 41.9309 44.9268C41.9309 46.2439 43.0617 47.3854 44.4009 47.3854ZM52.674 47.3854C54.0131 47.3854 55.1737 46.2439 55.1737 44.9268C55.1737 43.6098 54.0131 42.4683 52.674 42.4683C51.3348 42.4683 50.2039 43.6098 50.2039 44.9268C50.2039 46.2439 51.3348 47.3854 52.674 47.3854Z" fill="#143D95"/>
</svg>
