<svg width="68" height="60" viewBox="0 0 68 60" fill="none" xmlns="http://www.w3.org/2000/svg">
<path d="M0 2.83275C0 1.29583 1.25872 0 2.69307 0H12.7628C16.0121 0 17.0073 1.32597 17.3586 3.91763L17.8269 7.23255H64.8093C66.7998 7.23255 68 8.40784 68 10.1557C68 10.4571 67.9415 10.9694 67.8829 11.3913L65.6875 26.5495C65.0142 31.0999 62.6724 33.9026 58.223 33.9026H21.5738L22.0422 37.0367C22.2471 38.5736 23.1253 39.6283 24.5596 39.6283H57.9888C59.3646 39.6283 60.5648 40.7132 60.5648 42.2803C60.5648 43.8473 59.3646 44.9322 57.9888 44.9322H23.9156C19.4662 44.9322 17.1244 42.1597 16.4804 37.6394L11.9139 5.63536H2.69307C1.25872 5.63536 0 4.33953 0 2.83275ZM21.2226 54.7865C21.2226 51.8634 23.4765 49.5429 26.2867 49.5429C29.1261 49.5429 31.3508 51.8634 31.3508 54.7865C31.3508 57.6796 29.1261 60 26.2867 60C23.4765 60 21.2226 57.6796 21.2226 54.7865ZM48.2703 54.7865C48.2703 51.8634 50.5536 49.5429 53.3638 49.5429C56.2032 49.5429 58.4572 51.8634 58.4572 54.7865C58.4572 57.6796 56.2032 60 53.3638 60C50.5536 60 48.2703 57.6796 48.2703 54.7865Z" fill="#5E0B0B"/>
</svg>
