<svg width="53" height="47" viewBox="0 0 53 47" fill="none" xmlns="http://www.w3.org/2000/svg">
<path fill-rule="evenodd" clip-rule="evenodd" d="M10.1932 20.3206C4.62276 20.3206 0 15.6897 0 10.1603C0 4.5848 4.59965 0 10.1932 0C15.7405 0 20.3633 4.5848 20.3633 10.1603C20.3633 15.7127 15.7405 20.3206 10.1932 20.3206ZM27.8059 12.349C26.604 12.349 25.6563 11.3583 25.6563 10.1833C25.6563 8.96226 26.604 7.99461 27.8059 7.99461H50.8042C52.0292 7.99461 53 8.96226 53 10.1833C53 11.3814 52.0292 12.349 50.8042 12.349H27.8059ZM10.1932 47C4.62276 47 0 42.3691 0 36.8397C0 31.2642 4.59965 26.6794 10.1932 26.6794C15.7405 26.6794 20.3633 31.2642 20.3633 36.8397C20.3633 42.3922 15.7405 47 10.1932 47ZM27.8059 39.0054C26.604 39.0054 25.6563 38.0377 25.6563 36.8397C25.6563 35.6186 26.604 34.651 27.8059 34.651H50.8042C52.0292 34.651 53 35.6186 53 36.8397C53 38.0377 52.0292 39.0054 50.8042 39.0054H27.8059ZM9.18437 37.4185C9.19746 38.0249 9.59021 38.3766 10.2186 38.3766C10.847 38.3766 11.2398 38.037 11.2529 37.4185L11.41 32.7128C11.423 32.0943 10.9125 31.6335 10.2186 31.6335C9.51166 31.6335 9.01418 32.0943 9.02727 32.7007L9.18437 37.4185ZM8.89636 40.4384C8.89636 41.1054 9.49857 41.6026 10.2186 41.6026C10.9517 41.6026 11.5671 41.1054 11.5671 40.4384C11.5671 39.7592 10.9648 39.2619 10.2186 39.2619C9.49857 39.2619 8.89636 39.7592 8.89636 40.4384ZM11.2637 14.3691C11.2637 15.0317 10.7198 15.4964 10.0573 15.4964C9.3947 15.4964 8.84092 15.0218 8.84092 14.3691C8.84092 13.7264 9.38481 13.2419 10.0573 13.2419C10.7297 13.2419 11.2637 13.7165 11.2637 14.3691ZM11.0264 11.6004C11.0066 12.0256 10.6407 12.3519 10.077 12.3519C9.44414 12.3519 9.08814 12.0454 9.08814 11.462V11.3532C9.08814 10.4138 9.62214 9.8897 10.3539 9.3755C11.2241 8.77231 11.6593 8.45588 11.6593 7.80325C11.6593 7.12095 11.0956 6.63642 10.2748 6.63642C9.6617 6.63642 9.17714 6.92318 8.82114 7.48682L8.66292 7.69448C8.46514 7.96146 8.20803 8.12957 7.83225 8.12957C7.40703 8.12957 7.01147 7.81314 7.01147 7.31872C7.01147 7.13084 7.06092 6.95285 7.12025 6.77486C7.4367 5.81569 8.63325 5.01473 10.3935 5.01473C12.2229 5.01473 13.7755 5.98379 13.7755 7.70437C13.7755 8.90086 13.1129 9.49416 12.0944 10.1567C11.4318 10.5918 11.0659 10.9379 11.0363 11.4718C11.0363 11.5114 11.0363 11.5608 11.0264 11.6004Z" fill="white"/>
</svg>
