<svg width="52" height="52" viewBox="0 0 52 52" fill="none" xmlns="http://www.w3.org/2000/svg">
<path d="M14.2466 37.5342C6.10959 29.3973 0 19.7808 0 11.863C0 8.35616 1.23288 5.23288 3.53425 2.9863C5.15068 1.45205 7.39726 0 9.26027 0C10.7671 0 11.863 1.12329 13.1781 2.9863L17.8356 9.50685C18.9041 10.9863 19.2603 12.137 19.2603 13.2329C19.2603 14.1918 19.0411 14.8493 18.3562 16.0822L15.7534 20.5479C15.5342 20.9315 15.3425 21.2603 15.3425 21.6164C15.3425 22.0822 15.5068 22.4931 15.6438 22.7671C16.7123 24.9041 18.7671 27.589 21.3973 30.2192C24.0274 32.8767 27.0137 35.2055 29.1507 36.1918C29.6712 36.411 30.0274 36.5479 30.5479 36.5479C30.9315 36.5479 31.1781 36.4658 31.6986 36.1918L36.137 33.7534C37.589 32.9589 38.3014 32.7945 39.1781 32.7945C40.1644 32.7945 40.9315 33.0137 42.6301 34.2192L49.4247 39.0959C51.2603 40.3836 52 41.4521 52 42.6301C52 44.137 51.2329 45.863 49.2055 48.137C47.0959 50.5205 43.863 52 40.137 52C32.2466 52 22.4658 45.7534 14.2466 37.5342Z" fill="#143D95"/>
</svg>
