<svg width="62" height="46" viewBox="0 0 62 46" fill="none" xmlns="http://www.w3.org/2000/svg">
<path d="M49.4914 46C46.1361 46 44.3844 44.3765 44.3844 41.154V4.87059C44.3844 1.64813 46.1361 0 49.4914 0H56.8436C60.2483 0 62 1.64813 62 4.87059V41.154C62 44.3765 60.2483 46 56.8436 46H49.4914ZM27.3116 46C23.9316 46 22.1799 44.3765 22.1799 41.154V12.0535C22.1799 8.83102 23.9316 7.18289 27.3116 7.18289H34.6637C38.0684 7.18289 39.7955 8.83102 39.7955 12.0535V41.154C39.7955 44.3765 38.0684 46 34.6637 46H27.3116ZM5.13172 46C1.75169 46 0 44.3765 0 41.154V19.2118C0 15.9893 1.75169 14.3412 5.13172 14.3412H12.4592C15.8639 14.3412 17.6156 15.9893 17.6156 19.2118V41.154C17.6156 44.3765 15.8639 46 12.4592 46H5.13172Z" fill="white"/>
</svg>
