<svg width="69" height="60" viewBox="0 0 69 60" fill="none" xmlns="http://www.w3.org/2000/svg">
<path d="M0 2.83275C0 1.29583 1.27723 0 2.73267 0H12.9505C16.2475 0 17.2574 1.32597 17.6139 3.91763L18.0891 7.23255H65.7624C67.7822 7.23255 69 8.40784 69 10.1557C69 10.4571 68.9406 10.9694 68.8812 11.3913L66.6535 26.5495C65.9703 31.0999 63.5941 33.9026 59.0792 33.9026H21.8911L22.3663 37.0367C22.5743 38.5736 23.4653 39.6283 24.9208 39.6283H58.8416C60.2376 39.6283 61.4554 40.7132 61.4554 42.2803C61.4554 43.8473 60.2376 44.9322 58.8416 44.9322H24.2673C19.7525 44.9322 17.3762 42.1597 16.7228 37.6394L12.0891 5.63536H2.73267C1.27723 5.63536 0 4.33953 0 2.83275ZM21.5347 54.7865C21.5347 51.8634 23.8218 49.5429 26.6733 49.5429C29.5545 49.5429 31.8119 51.8634 31.8119 54.7865C31.8119 57.6796 29.5545 60 26.6733 60C23.8218 60 21.5347 57.6796 21.5347 54.7865ZM48.9802 54.7865C48.9802 51.8634 51.297 49.5429 54.1485 49.5429C57.0297 49.5429 59.3168 51.8634 59.3168 54.7865C59.3168 57.6796 57.0297 60 54.1485 60C51.297 60 48.9802 57.6796 48.9802 54.7865Z" fill="#143D95"/>
</svg>
