<svg width="44" height="56" viewBox="0 0 44 56" fill="none" xmlns="http://www.w3.org/2000/svg">
<path d="M8.26122 56C2.84781 56 0 53.1275 0 47.6155V8.48798C0 2.89834 2.84781 0 8.33819 0H35.6618C41.1522 0 44 2.92421 44 8.48798V37.2384C44 39.8521 42.9738 41.1201 41.7166 42.2847C38.484 45.3641 39.1254 49.7634 42.2811 51.1608C43.2303 51.6007 44 52.4547 44 53.5933C44 54.9649 42.9738 56 41.6397 56H8.26122ZM7.9277 39.0499C8.77434 39.0499 9.49271 38.3512 9.49271 37.4972V5.90018C9.49271 5.02033 8.77434 4.32163 7.9277 4.32163C7.08105 4.32163 6.36268 5.02033 6.36268 5.90018V37.4972C6.36268 38.3512 7.08105 39.0499 7.9277 39.0499ZM18.2414 31.7264C19.242 31.7264 19.9347 31.2089 20.3195 29.915L21.7306 25.7486H29.2991L30.6845 29.915C31.0694 31.2089 31.7621 31.7264 32.7883 31.7264C34.0198 31.7264 34.7895 30.976 34.7895 29.8115C34.7895 29.4233 34.7382 29.0092 34.5073 28.3882L28.6577 12.2662C28.119 10.6876 27.0414 9.91127 25.4764 9.91127C23.937 9.91127 22.9108 10.6876 22.3464 12.2662L16.4968 28.3882C16.2659 29.0092 16.2146 29.4233 16.2146 29.8115C16.2146 30.976 16.9843 31.7264 18.2414 31.7264ZM22.6542 22.5915L25.3738 14.207H25.6303L28.3499 22.5915H22.6542ZM8.90262 51.1867H35.8414C34.4816 48.8318 34.3277 45.8817 35.5848 43.1645C35.3283 43.1904 35.0717 43.2163 34.7895 43.2163H9.10787C6.41399 43.2163 4.77201 44.8725 4.77201 47.1756C4.77201 49.634 6.18309 51.1867 8.90262 51.1867Z" fill="#0AAF00"/>
</svg>
