<svg width="54" height="54" viewBox="0 0 54 54" fill="none" xmlns="http://www.w3.org/2000/svg">
<path d="M2.20633 17.5493C0.799796 17.5493 0 16.7215 0 15.2867V8.52632C0 2.84211 2.89581 0 8.65986 0H15.3892C16.8509 0 17.6507 0.772611 17.6507 2.20746C17.6507 3.64231 16.8509 4.44251 15.3892 4.44251H8.71502C5.9571 4.44251 4.44025 5.90496 4.44025 8.77466V15.2867C4.44025 16.7215 3.66803 17.5493 2.20633 17.5493ZM51.7661 17.5493C50.3596 17.5493 49.5598 16.7215 49.5598 15.2867V8.77466C49.5598 5.90496 47.9877 4.44251 45.2574 4.44251H38.5832C37.1491 4.44251 36.3493 3.64231 36.3493 2.20746C36.3493 0.772611 37.1491 0 38.5832 0H45.3401C51.1042 0 54 2.84211 54 8.52632V15.2867C54 16.7215 53.2278 17.5493 51.7661 17.5493ZM12.2727 16.3352C12.2727 15.3143 13.1001 14.4865 14.1205 14.4865H39.907C40.9275 14.4865 41.7549 15.3143 41.7549 16.3352C41.7549 17.3838 40.9275 18.2115 39.907 18.2115H14.1205C13.1001 18.2115 12.2727 17.3838 12.2727 16.3352ZM12.2727 26.931C12.2727 25.9101 13.1001 25.0823 14.1205 25.0823H39.907C40.9275 25.0823 41.7549 25.9101 41.7549 26.931C41.7549 27.9796 40.9275 28.8074 39.907 28.8074H14.1205C13.1001 28.8074 12.2727 27.9796 12.2727 26.931ZM12.2727 37.5544C12.2727 36.5059 13.1001 35.6781 14.1205 35.6781H31.0817C32.1021 35.6781 32.9295 36.5059 32.9295 37.5544C32.9295 38.5754 32.1021 39.4032 31.0817 39.4032H14.1205C13.1001 39.4032 12.2727 38.5754 12.2727 37.5544ZM8.65986 54C2.89581 54 0 51.1579 0 45.4461V38.7133C0 37.2509 0.772217 36.4507 2.20633 36.4507C3.64045 36.4507 4.44025 37.2509 4.44025 38.7133V45.2253C4.44025 48.095 5.9571 49.5575 8.71502 49.5575H15.3892C16.8509 49.5575 17.6507 50.3577 17.6507 51.7925C17.6507 53.1998 16.8509 54 15.3892 54H8.65986ZM38.5832 54C37.1491 54 36.3493 53.1998 36.3493 51.7925C36.3493 50.3577 37.1491 49.5575 38.5832 49.5575H45.2574C47.9877 49.5575 49.5598 48.095 49.5598 45.2253V38.7133C49.5598 37.2509 50.332 36.4507 51.7661 36.4507C53.2002 36.4507 54 37.2509 54 38.7133V45.4461C54 51.1303 51.1042 54 45.3401 54H38.5832Z" fill="white"/>
</svg>
