<svg width="60" height="57" viewBox="0 0 60 57" fill="none" xmlns="http://www.w3.org/2000/svg">
<path d="M16.6339 57C15.0268 57 14.0893 55.8654 14.0893 54.0825V46.3024H12.4018C4.63393 46.3024 0 41.6559 0 33.6327V12.6697C0 4.64645 4.52679 0 12.5893 0H47.4375C55.4732 0 60 4.64645 60 12.6697V33.6327C60 41.6559 55.4732 46.3024 47.4375 46.3024H29.7321L19.9286 55.2441C18.5893 56.4597 17.7589 57 16.6339 57ZM30.0268 27.7976C31.5536 27.7976 32.4107 26.9332 32.4643 25.3123L32.8929 11.7242C32.9196 10.0763 31.7143 8.88768 30 8.88768C28.2589 8.88768 27.0804 10.0493 27.1339 11.6972L27.5089 25.3123C27.5625 26.9332 28.4464 27.7976 30.0268 27.7976ZM30.0268 37.1175C31.8214 37.1175 33.2946 35.8209 33.2946 34.0379C33.2946 32.255 31.8482 30.9313 30.0268 30.9313C28.2054 30.9313 26.7321 32.255 26.7321 34.0379C26.7321 35.7938 28.2321 37.1175 30.0268 37.1175Z" fill="#FF7A05"/>
</svg>
