<svg width="59" height="59" viewBox="0 0 59 59" fill="none" xmlns="http://www.w3.org/2000/svg">
<path d="M0 24.1094C0 10.8107 10.9093 0 24.3293 0C37.7492 0 48.6586 10.8107 48.6586 24.1094C48.6586 29.2927 46.9549 34.0909 44.1155 37.9709L57.7746 51.5361C58.5816 52.3655 59 53.4613 59 54.6461C59 57.1044 57.1768 59 54.6363 59C53.4706 59 52.305 58.615 51.4681 57.756L37.7194 44.1315C33.8936 46.7083 29.3207 48.2189 24.3293 48.2189C10.9093 48.2189 0 37.4081 0 24.1094ZM6.21682 24.1094C6.21682 34.0316 14.3166 42.0582 24.3293 42.0582C34.3419 42.0582 42.4417 34.0316 42.4417 24.1094C42.4417 14.1872 34.3419 6.16064 24.3293 6.16064C14.3166 6.16064 6.21682 14.1872 6.21682 24.1094Z" fill="#EA5029"/>
<path d="M18.4226 32.9532C18.1091 33.311 17.6494 33.4899 17.1688 33.4899C16.2285 33.4899 15.4554 32.6625 15.4554 31.6338C15.4554 31.1418 15.6225 30.6722 15.9569 30.3368L21.7659 24.12L15.9569 17.9255C15.6225 17.5677 15.4554 17.1204 15.4554 16.6285C15.4554 15.5774 16.2285 14.7947 17.1688 14.7947C17.6494 14.7947 18.0464 14.9736 18.3599 15.3091L24.1898 21.5259L30.0615 15.2867C30.4167 14.9065 30.8137 14.75 31.2734 14.75C32.2137 14.75 32.9869 15.5551 32.9869 16.5837C32.9869 17.0981 32.8406 17.5006 32.4854 17.9031L26.6555 24.12L32.4645 30.3144C32.7988 30.6499 32.966 31.1195 32.966 31.6338C32.966 32.6625 32.1928 33.4899 31.2316 33.4899C30.751 33.4899 30.2913 33.311 29.9779 32.9532L24.1898 26.7364L18.4226 32.9532Z" fill="#EA5029"/>
</svg>
