<svg width="59" height="59" viewBox="0 0 59 59" fill="none" xmlns="http://www.w3.org/2000/svg">
<path d="M0 24.1094C0 10.8107 10.9093 0 24.3293 0C37.7492 0 48.6586 10.8107 48.6586 24.1094C48.6586 29.2927 46.9549 34.0909 44.1155 37.9709L57.7746 51.5361C58.5816 52.3655 59 53.4613 59 54.6461C59 57.1044 57.1768 59 54.6363 59C53.4706 59 52.305 58.615 51.4681 57.756L37.7194 44.1315C33.8936 46.7083 29.3207 48.2189 24.3293 48.2189C10.9093 48.2189 0 37.4081 0 24.1094ZM6.21682 24.1094C6.21682 34.0316 14.3166 42.0582 24.3293 42.0582C34.3419 42.0582 42.4417 34.0316 42.4417 24.1094C42.4417 14.1872 34.3419 6.16064 24.3293 6.16064C14.3166 6.16064 6.21682 14.1872 6.21682 24.1094ZM15.4524 22.3619C14.2269 22.3619 13.3004 21.3845 13.3004 20.1702C13.3004 18.9854 14.1971 18.0377 15.4524 18.0377H33.3556C34.5811 18.0377 35.5076 18.9854 35.5076 20.1702C35.5076 21.3549 34.5811 22.3619 33.3556 22.3619H15.4524ZM15.4524 30.1812C14.2269 30.1812 13.3004 29.2038 13.3004 28.0191C13.3004 26.8047 14.1971 25.8273 15.4524 25.8273H28.3642C29.5897 25.8273 30.5461 26.8047 30.5461 28.0191C30.5461 29.2038 29.5897 30.1812 28.3642 30.1812H15.4524Z" fill="white"/>
</svg>
