<svg width="59" height="59" viewBox="0 0 59 59" fill="none" xmlns="http://www.w3.org/2000/svg">
<path fill-rule="evenodd" clip-rule="evenodd" d="M24.3293 0C10.9093 0 0 10.8107 0 24.1094C0 37.4081 10.9093 48.2189 24.3293 48.2189C29.3207 48.2189 33.8936 46.7083 37.7193 44.1315L51.4681 57.756C52.305 58.615 53.4706 59 54.6363 59C57.1768 59 59 57.1044 59 54.6461C59 53.4613 58.5816 52.3655 57.7746 51.5361L44.1155 37.9709C46.9549 34.0909 48.6586 29.2927 48.6586 24.1094C48.6586 10.8107 37.7493 0 24.3293 0ZM24.1957 42.5C14.0846 42.5 5.87148 33.984 5.87148 23.5C5.87148 13.016 14.0846 4.5 24.1957 4.5C33.0828 4.5 40.4977 11.0663 42.1651 19.803H44.5598C45.8725 19.803 46.2273 20.833 45.5 21.863L41.3846 27.804C40.7992 28.6317 39.9123 28.6133 39.3624 27.804L35.247 21.8446C34.5374 20.833 34.8745 19.803 36.1694 19.803H38.4754C36.8789 13.1447 31.0961 8.23378 24.1957 8.23378C16.0536 8.23378 9.47246 15.0576 9.47246 23.5C9.47246 31.9424 16.0536 38.7478 24.1957 38.7478C25.1713 38.7478 25.9873 39.5939 25.9873 40.6423C25.9873 41.6539 25.1713 42.5 24.1957 42.5ZM15.2198 25.7807C14.4216 25.7807 13.8185 25.137 13.8185 24.3277C13.8185 23.5 14.4216 22.8746 15.2198 22.8746H22.7766V12.2619C22.7766 11.4526 23.3974 10.8088 24.1779 10.8088C24.9762 10.8088 25.5793 11.4526 25.5793 12.2619V24.3277C25.5793 25.137 24.9762 25.7807 24.1779 25.7807H15.2198ZM29.9785 41.3045C29.0206 41.3045 28.2401 40.4952 28.2401 39.5387C28.2401 38.5455 29.0206 37.7546 29.9785 37.7546C30.901 37.7546 31.6815 38.5455 31.6815 39.5387C31.6815 40.4952 30.901 41.3045 29.9785 41.3045ZM34.8922 38.5087C33.9343 38.5087 33.1715 37.7178 33.1715 36.743C33.1715 35.7498 33.9343 34.9589 34.8922 34.9589C35.8323 34.9589 36.5951 35.7498 36.5951 36.743C36.5951 37.7178 35.8323 38.5087 34.8922 38.5087ZM38.6173 34.1128C37.6594 34.1128 36.8967 33.3219 36.8967 32.347C36.8967 31.3538 37.6594 30.5629 38.6173 30.5629C39.5575 30.5629 40.3203 31.3538 40.3203 32.347C40.3203 33.3219 39.5575 34.1128 38.6173 34.1128Z" fill="#0090FF"/>
</svg>
