<svg width="59" height="59" viewBox="0 0 59 59" fill="none" xmlns="http://www.w3.org/2000/svg">
<path d="M0 24.1094C0 10.8107 10.9093 0 24.3293 0C37.7492 0 48.6586 10.8107 48.6586 24.1094C48.6586 29.2927 46.9549 34.0909 44.1155 37.9709L57.7746 51.5361C58.5816 52.3655 59 53.4613 59 54.6461C59 57.1044 57.1768 59 54.6363 59C53.4706 59 52.305 58.615 51.4681 57.756L37.7194 44.1315C33.8936 46.7083 29.3207 48.2189 24.3293 48.2189C10.9093 48.2189 0 37.4081 0 24.1094ZM6.21682 24.1094C6.21682 34.0316 14.3166 42.0582 24.3293 42.0582C34.3419 42.0582 42.4417 34.0316 42.4417 24.1094C42.4417 14.1872 34.3419 6.16064 24.3293 6.16064C14.3166 6.16064 6.21682 14.1872 6.21682 24.1094ZM24.3293 28.2856C22.8946 28.2856 21.998 27.4267 21.9681 25.9458L21.6094 14.4242C21.5795 12.9433 22.7153 11.8178 24.3293 11.8178C25.9134 11.8178 27.079 12.9433 27.0491 14.4538L26.6905 25.9458C26.6606 27.4563 25.7639 28.2856 24.3293 28.2856ZM24.3293 36.1642C22.6854 36.1642 21.3105 34.9498 21.3105 33.3208C21.3105 31.6621 22.6854 30.4478 24.3293 30.4478C26.0329 30.4478 27.4078 31.6621 27.4078 33.3208C27.4078 34.9498 26.003 36.1642 24.3293 36.1642Z" fill="#FF7A05"/>
</svg>
