<svg width="59" height="59" viewBox="0 0 59 59" fill="none" xmlns="http://www.w3.org/2000/svg">
<path d="M0 24.1094C0 10.8107 10.9093 0 24.3293 0C37.7493 0 48.6586 10.8107 48.6586 24.1094C48.6586 29.2927 46.9549 34.0909 44.1155 37.9709L57.7746 51.5362C58.5816 52.3655 59 53.4613 59 54.6461C59 57.1044 57.1768 59 54.6363 59C53.4706 59 52.305 58.615 51.4681 57.756L37.7193 44.1315C33.8936 46.7083 29.3207 48.2189 24.3293 48.2189C10.9093 48.2189 0 37.4081 0 24.1094ZM6.21681 24.1094C6.21681 34.0316 14.3166 42.0582 24.3293 42.0582C34.342 42.0582 42.4417 34.0316 42.4417 24.1094C42.4417 14.1873 34.342 6.16064 24.3293 6.16064C14.3166 6.16064 6.21681 14.1873 6.21681 24.1094Z" fill="white"/>
</svg>
