<svg width="60" height="57" viewBox="0 0 60 57" fill="none" xmlns="http://www.w3.org/2000/svg">
<path fill-rule="evenodd" clip-rule="evenodd" d="M14.0893 54.0825C14.0893 55.8654 15.0268 57 16.6339 57C17.7589 57 18.5893 56.4597 19.9286 55.2441L29.7321 46.3024H47.4375C55.4732 46.3024 60 41.6559 60 33.6327V12.6697C60 4.64645 55.4732 0 47.4375 0H12.5893C4.52679 0 0 4.64645 0 12.6697V33.6327C0 41.6559 4.63393 46.3024 12.4018 46.3024H14.0893V54.0825ZM21.9615 33.633C22.5317 33.633 23.0771 33.4328 23.449 33.0326L30.2914 26.0782L37.1587 33.0326C37.5306 33.4328 38.076 33.633 38.6462 33.633C39.7866 33.633 40.7039 32.7074 40.7039 31.5567C40.7039 30.9813 40.5055 30.456 40.1089 30.0807L33.2168 23.1513L40.1337 16.1969C40.5551 15.7466 40.7287 15.2963 40.7287 14.721C40.7287 13.5702 39.8114 12.6697 38.6958 12.6697C38.1503 12.6697 37.6793 12.8448 37.2579 13.27L30.2914 20.2495L23.3746 13.2951C23.0027 12.9198 22.5317 12.7197 21.9615 12.7197C20.8459 12.7197 19.9286 13.5953 19.9286 14.771C19.9286 15.3214 20.1269 15.8217 20.5236 16.2219L27.4156 23.1513L20.5236 30.1057C20.1269 30.481 19.9286 31.0063 19.9286 31.5567C19.9286 32.7074 20.8459 33.633 21.9615 33.633Z" fill="#EA5029"/>
</svg>
