<svg width="68" height="54" viewBox="0 0 68 54" fill="none" xmlns="http://www.w3.org/2000/svg">
<path d="M0 29.041V10.9633C0 4.01209 3.92218 0 10.9078 0H40.4983C46.3468 0 50.0137 2.86911 51.0116 7.88423V8.23413H35.787C27.2 8.23413 22.071 13.5058 22.071 21.9499V35.1758C22.071 37.8583 22.6048 40.2143 23.6259 42.1736L17.7078 47.3987C16.3154 48.635 15.4567 49.2415 14.2962 49.2415C12.6485 49.2415 11.6969 48.0752 11.6969 46.2324V40.0043H10.7454C4.01502 40.0043 0 35.9922 0 29.041ZM35.787 45.3227C29.1031 45.3227 25.4362 41.6605 25.4362 35.1758V21.9499C25.4362 15.3719 29.1031 11.6397 35.787 11.6397H57.6724C64.3563 11.6397 68 15.3719 68 21.9499V35.1525C68 41.6605 64.4027 45.3227 57.8116 45.3227H57.3939V51.0376C57.3939 52.857 56.4423 54 54.8177 54C53.6573 54 52.8451 53.4168 51.4294 52.1806L43.4457 45.3227H35.787ZM38.4096 26.1719H55.1659C56.2799 26.1719 57.1386 25.2622 57.1386 24.1892C57.1386 23.0462 56.3031 22.2065 55.1659 22.2065H38.4096C37.2724 22.2065 36.4601 23.0462 36.4601 24.1892C36.4601 25.2622 37.2724 26.1719 38.4096 26.1719ZM38.4096 35.1058H50.5706C51.6614 35.1058 52.5433 34.2661 52.5433 33.1698C52.5433 32.0501 51.6614 31.1404 50.5706 31.1404H38.4096C37.2724 31.1404 36.4601 32.0501 36.4601 33.1698C36.4601 34.2661 37.2724 35.1058 38.4096 35.1058Z" fill="#5E0B0B"/>
</svg>
