<svg width="59" height="59" viewBox="0 0 59 59" fill="none" xmlns="http://www.w3.org/2000/svg">
<path d="M0 24.1094C0 10.8107 10.9093 0 24.3293 0C37.7493 0 48.6586 10.8107 48.6586 24.1094C48.6586 29.2927 46.9549 34.0909 44.1155 37.9709L57.7746 51.5362C58.5816 52.3655 59 53.4613 59 54.6461C59 57.1044 57.1768 59 54.6363 59C53.4706 59 52.305 58.615 51.4681 57.756L37.7193 44.1315C33.8936 46.7083 29.3207 48.2189 24.3293 48.2189C10.9093 48.2189 0 37.4081 0 24.1094ZM6.21681 24.1094C6.21681 34.0316 14.3166 42.0582 24.3293 42.0582C34.342 42.0582 42.4417 34.0316 42.4417 24.1094C42.4417 14.1873 34.342 6.16064 24.3293 6.16064C14.3166 6.16064 6.21681 14.1873 6.21681 24.1094Z" fill="#FFA705"/>
<path d="M24.006 29.0929C25.2928 29.0929 26.1282 28.2959 26.1733 27.2575C26.1959 27.1609 26.1959 27.0402 26.1959 26.9436C26.2636 25.6395 27.099 24.7943 28.6116 23.7318C30.937 22.1138 32.4496 20.6648 32.4496 17.7428C32.4496 13.5409 28.9051 11.1742 24.7284 11.1742C20.7098 11.1742 17.978 13.1303 17.2556 15.4728C17.1201 15.9075 17.0072 16.3421 17.0072 16.801C17.0072 18.0084 17.9103 18.7812 18.8811 18.7812C19.739 18.7812 20.326 18.3707 20.7775 17.7186L21.1388 17.2115C21.9515 15.835 23.0578 15.1347 24.4575 15.1347C26.3314 15.1347 27.6182 16.318 27.6182 17.9843C27.6182 19.5781 26.6249 20.3509 24.6381 21.824C22.9675 23.0797 21.7483 24.3596 21.7483 26.6538V26.9194C21.7483 28.3442 22.5611 29.0929 24.006 29.0929ZM23.9608 36.7723C25.4735 36.7723 26.7152 35.6373 26.7152 34.0193C26.7152 32.4254 25.496 31.2663 23.9608 31.2663C22.4256 31.2663 21.1839 32.4496 21.1839 34.0193C21.1839 35.6131 22.4482 36.7723 23.9608 36.7723Z" fill="#FFA705"/>
</svg>
