<svg width="60" height="57" viewBox="0 0 60 57" fill="none" xmlns="http://www.w3.org/2000/svg">
<path d="M16.6339 57C15.0268 57 14.0893 55.8654 14.0893 54.0825V46.3024H12.4018C4.63393 46.3024 0 41.6559 0 33.6327V12.6697C0 4.64645 4.52679 0 12.5893 0H47.4375C55.4732 0 60 4.64645 60 12.6697V33.6327C60 41.6559 55.4732 46.3024 47.4375 46.3024H29.7321L19.9286 55.2441C18.5893 56.4597 17.7589 57 16.6339 57ZM29.4107 28.7431C30.9375 28.7431 31.9286 27.8517 31.9821 26.69C32.0089 26.582 32.0089 26.4469 32.0089 26.3389C32.0893 24.8801 33.0804 23.9346 34.875 22.746C37.6339 20.936 39.4286 19.3152 39.4286 16.0464C39.4286 11.346 35.2232 8.69858 30.2679 8.69858C25.5 8.69858 22.2589 10.8867 21.4018 13.5071C21.2411 13.9934 21.1071 14.4796 21.1071 14.9929C21.1071 16.3436 22.1786 17.2081 23.3304 17.2081C24.3482 17.2081 25.0446 16.7488 25.5804 16.0194L26.0089 15.4521C26.9732 13.9123 28.2857 13.1289 29.9464 13.1289C32.1696 13.1289 33.6964 14.4526 33.6964 16.3166C33.6964 18.0995 32.5179 18.964 30.1607 20.6118C28.1786 22.0166 26.7321 23.4483 26.7321 26.0147V26.3118C26.7321 27.9057 27.6964 28.7431 29.4107 28.7431ZM29.3571 37.3336C31.1518 37.3336 32.625 36.064 32.625 34.254C32.625 32.4711 31.1786 31.1744 29.3571 31.1744C27.5357 31.1744 26.0625 32.4981 26.0625 34.254C26.0625 36.037 27.5625 37.3336 29.3571 37.3336Z" fill="#FFA705"/>
</svg>
