<svg width="71" height="66" viewBox="0 0 71 66" fill="none" xmlns="http://www.w3.org/2000/svg">
<path fill-rule="evenodd" clip-rule="evenodd" d="M30.0728 65.2793C31.2931 65.2793 32.4844 64.8466 33.9953 63.9812L39.9485 60.5551C38.9565 58.9225 38.2026 57.1291 37.7378 55.2252L31.235 58.9043C30.7991 59.1351 30.4505 59.2793 30.0728 59.2793C29.666 59.2793 29.3173 59.1351 28.8815 58.9043L7.4964 46.7888C7.35112 46.7311 7.293 46.6446 7.293 46.5292C7.293 46.385 7.35112 46.3273 7.4964 46.2407L13.1623 43.0388L26.1212 50.51C27.6321 51.4042 28.8234 51.8369 30.0728 51.8369C31.2931 51.8369 32.4844 51.4042 33.9953 50.51L37.3247 48.5947C37.676 45.546 38.7616 42.706 40.3955 40.2626L31.235 45.433C30.7991 45.6926 30.4505 45.808 30.0728 45.808C29.666 45.808 29.3173 45.6926 28.8815 45.433L7.4964 33.3464C7.35112 33.2599 7.293 33.2022 7.293 33.0579C7.293 32.9137 7.35112 32.856 7.4964 32.7695L13.8596 29.1637L26.1212 36.231C27.6321 37.1253 28.8234 37.5291 30.0728 37.5291C31.2931 37.5291 32.4844 37.1253 33.9953 36.231L46.2568 29.1925L51.8372 32.3151C53.1525 32.0138 54.518 31.8545 55.9166 31.8545C57.3353 31.8545 58.7198 32.0184 60.0524 32.3281C59.7887 30.8975 58.6997 29.8312 56.6007 28.6156L51.9227 25.904L56.6007 23.2213C59.0414 21.8079 60.1164 20.5963 60.1164 18.779C60.1164 16.9328 59.0414 15.7501 56.6007 14.3078L33.9953 1.29809C32.4844 0.432695 31.2931 0 30.0728 0C28.8234 0 27.6321 0.432695 26.1212 1.29809L3.51575 14.3078C1.07506 15.7501 0 16.9328 0 18.779C0 20.5963 1.07506 21.8079 3.51575 23.2213L8.19373 25.9329L3.51575 28.6156C1.07506 30.0291 0 31.2406 0 33.0579C0 34.8753 1.07506 36.0868 3.51575 37.5003L7.4964 39.7791L3.51575 42.058C1.07506 43.5003 0 44.683 0 46.5292C0 48.3465 1.07506 49.5581 3.51575 50.9715L26.1212 63.9812C27.6321 64.8466 28.8234 65.2793 30.0728 65.2793Z" fill="#143D95"/>
<path fill-rule="evenodd" clip-rule="evenodd" d="M55.9169 66C47.6578 66 40.8338 59.1307 40.8338 50.7514C40.8338 42.4017 47.6578 35.5028 55.9169 35.5028C64.176 35.5028 71 42.4017 71 50.7514C71 59.0715 64.0881 66 55.9169 66ZM53.1022 58.1888C53.7728 58.1888 54.4154 57.9156 54.7507 57.4785L62.8255 46.5791C63.1049 46.2239 63.2446 45.7869 63.2446 45.4591C63.2446 44.3664 62.3226 43.5196 61.2608 43.5196C60.5623 43.5196 59.9476 43.8747 59.5844 44.3664L52.9905 53.299L49.7494 49.8298C49.4141 49.4747 48.9112 49.2015 48.2685 49.2015C47.1789 49.2015 46.2568 49.9937 46.2568 51.1683C46.2568 51.6327 46.4524 52.1517 46.8156 52.5615L51.5096 57.5605C51.9287 57.9976 52.5714 58.1888 53.1022 58.1888Z" fill="#143D95"/>
</svg>
