<svg width="60" height="63" viewBox="0 0 60 63" fill="none" xmlns="http://www.w3.org/2000/svg">
<path d="M30 63C13.4463 63 0 50.0657 0 34.1424C0 24.9515 4.53049 16.7105 11.7038 11.4027C13.2139 10.1735 15.1888 10.4808 16.1181 11.7379C17.1346 13.1068 16.6989 14.727 15.334 15.8445C9.61278 20.0628 5.89545 26.6277 5.89545 34.1424C5.89545 46.9649 16.6699 57.3011 30 57.3011C43.3301 57.3011 54.1045 46.9649 54.1045 34.1424C54.1045 23.2754 46.3504 14.1683 35.8374 11.6541V15.2578C35.8374 17.325 34.211 17.8558 32.6137 16.7384L23.2043 10.2573C21.9264 9.36336 21.8974 7.96657 23.2043 7.07263L32.5847 0.591535C34.211 -0.553831 35.8374 -0.0230517 35.8374 2.07213V5.84346C49.6321 8.46942 60 20.1466 60 34.1424C60 50.0657 46.5537 63 30 63ZM16.6118 30.1196C15.3921 30.1196 14.4627 29.2257 14.4627 28.1082C14.4627 27.0188 15.3921 26.1248 16.6118 26.1248H29.0126C29.8548 23.9458 32.0329 22.3814 34.5886 22.3814C37.1442 22.3814 39.3514 23.9458 40.1936 26.1248H43.5044C44.5789 26.1248 45.5082 27.0188 45.5082 28.1082C45.5082 29.2257 44.5789 30.1196 43.5044 30.1196H40.1646C39.3224 32.2986 37.1152 33.863 34.5886 33.863C32.062 33.863 29.8838 32.2986 29.0126 30.1196H16.6118ZM34.5886 30.7063C36.0987 30.7063 37.2604 29.5609 37.2604 28.0803C37.2604 26.6277 36.0987 25.5102 34.5886 25.5102C33.0784 25.5102 31.9167 26.6277 31.9167 28.0803C31.9167 29.5609 33.0784 30.7063 34.5886 30.7063ZM16.4956 44.7021C15.3921 44.7021 14.4627 43.8081 14.4627 42.6907C14.4627 41.6012 15.3921 40.7073 16.4956 40.7073H19.8064C20.6486 38.5283 22.8558 36.9639 25.4114 36.9639C27.9671 36.9639 30.1742 38.5283 31.0165 40.7073H43.3882C44.5789 40.7073 45.5082 41.6012 45.5082 42.6907C45.5082 43.8081 44.5789 44.7021 43.3882 44.7021H31.0165C30.1452 46.8811 27.9671 48.4455 25.4114 48.4455C22.8558 48.4455 20.6776 46.8811 19.8354 44.7021H16.4956ZM25.4114 45.2887C26.9216 45.2887 28.1123 44.1434 28.1123 42.6907C28.1123 41.2101 26.9216 40.0927 25.4114 40.0927C23.9013 40.0927 22.7396 41.2101 22.7396 42.6907C22.7396 44.1434 23.9013 45.2887 25.4114 45.2887Z" fill="white"/>
</svg>
