<svg width="60" height="63" viewBox="0 0 60 63" fill="none" xmlns="http://www.w3.org/2000/svg">
<path d="M30 63C13.4463 63 0 50.0658 0 34.1424C0 24.9515 4.53049 16.7105 11.7038 11.4027C13.2139 10.1735 15.1888 10.4808 16.1181 11.7379C17.1346 13.1068 16.6989 14.727 15.334 15.8445C9.61278 20.0628 5.89545 26.6277 5.89545 34.1424C5.89545 46.9649 16.6699 57.3011 30 57.3011C43.3301 57.3011 54.1045 46.9649 54.1045 34.1424C54.1045 23.2754 46.3504 14.1683 35.8374 11.6541V15.2578C35.8374 17.3251 34.211 17.8558 32.6137 16.7384L23.2043 10.2573C21.9264 9.36336 21.8974 7.96657 23.2043 7.07263L32.5847 0.591535C34.211 -0.553831 35.8374 -0.0230517 35.8374 2.07213V5.84346C49.6321 8.46942 60 20.1466 60 34.1424C60 50.0658 46.5537 63 30 63Z" fill="white"/>
<path d="M39.8232 43.6513C38.7615 43.6513 37.9995 43.0017 37.9995 41.7526V27C37.9995 25.7508 38.7615 25.0888 39.8232 25.0888C40.8975 25.0888 41.647 25.7508 41.647 27V41.7526C41.647 43.0017 40.8975 43.6513 39.8232 43.6513Z" fill="white"/>
<path d="M21.4845 43.5127C18.9362 43.5127 17 41.8638 17 39.4529C17 37.0171 18.8737 35.6055 22.2215 35.4057L25.5942 35.2058V34.3189C25.5942 33.0698 24.7198 32.3452 23.3457 32.3452C22.234 32.3452 21.5594 32.7075 20.7475 33.7568C20.3477 34.2065 19.8856 34.4313 19.2985 34.4313C18.4115 34.4313 17.7745 33.8567 17.7745 33.0323C17.7745 32.745 17.8369 32.4826 17.9619 32.2078C18.5864 30.6089 20.735 29.6221 23.5081 29.6221C26.9433 29.6221 29.1793 31.3959 29.1793 34.0941V41.7264C29.1793 42.9381 28.4423 43.5627 27.4055 43.5627C26.4187 43.5627 25.7316 43.0131 25.6567 41.9388V41.2517H25.5817C24.8322 42.6758 23.1584 43.5127 21.4845 43.5127ZM22.6837 40.877C24.2826 40.877 25.5942 39.8402 25.5942 38.3912V37.4168L22.7711 37.5917C21.4095 37.6916 20.6351 38.3037 20.6351 39.2531C20.6351 40.2524 21.4595 40.877 22.6837 40.877Z" fill="white"/>
<path d="M33.5 43.6514C32.4382 43.6514 31.6762 43.0018 31.6762 41.7526V27.0001C31.6762 25.7509 32.4382 25.0889 33.5 25.0889C34.5743 25.0889 35.3238 25.7509 35.3238 27.0001V41.7526C35.3238 43.0018 34.5743 43.6514 33.5 43.6514Z" fill="white"/>
</svg>
