<svg width="60" height="63" viewBox="0 0 60 63" fill="none" xmlns="http://www.w3.org/2000/svg">
<path d="M30 63C13.4463 63 0 50.0657 0 34.1424C0 24.9515 4.53049 16.7105 11.7038 11.4027C13.2139 10.1735 15.1888 10.4808 16.1181 11.7379C17.1346 13.1068 16.6989 14.727 15.334 15.8445C9.61278 20.0628 5.89545 26.6277 5.89545 34.1424C5.89545 46.9649 16.6699 57.3011 30 57.3011C43.3301 57.3011 54.1045 46.9649 54.1045 34.1424C54.1045 23.2754 46.3504 14.1683 35.8374 11.6541V15.2578C35.8374 17.325 34.211 17.8558 32.6137 16.7384L23.2043 10.2573C21.9264 9.36336 21.8974 7.96657 23.2043 7.07263L32.5847 0.591535C34.211 -0.553831 35.8374 -0.0230517 35.8374 2.07213V5.84346C49.6321 8.46942 60 20.1466 60 34.1424C60 50.0657 46.5537 63 30 63Z" fill="white"/>
</svg>
