<svg width="59" height="60" viewBox="0 0 59 60" fill="none" xmlns="http://www.w3.org/2000/svg">
<path d="M0 32.1583V11.7356C0 8.55216 1.28558 7.39209 3.96616 6.28597C7.00232 5.04496 17.287 1.29496 20.2684 0.485611C21.1437 0.242806 22.1831 0 23.1131 0C24.0158 0 25.0552 0.188849 25.9578 0.485611C28.9393 1.45683 39.1966 5.01799 42.2327 6.28597C44.9407 7.41906 46.1989 8.55216 46.1989 11.7356V28.8669C45.4877 28.5432 44.6945 28.3543 43.6277 28.3543C42.7524 28.3543 41.7404 28.5432 41.0566 28.8399V12.5989C41.0566 11.6547 40.8651 11.25 40.0992 10.9802C36.2425 9.63129 28.9666 7.06834 25.274 5.66547C24.6175 5.42266 24.0978 5.26079 23.5781 5.1259V49.1277C23.879 49.0468 24.2072 48.8849 24.6722 48.5881L29.2675 45.8633L25.6022 52.3651C25.3013 52.9317 25.0005 53.5522 24.8911 54.1996L24.2072 54.6043C23.0584 55.009 22.1558 54.8471 21.1984 54.3076C5.49791 45.8363 0 41.9784 0 32.1583ZM32.0575 60C29.7872 60 28.3102 58.3543 28.3102 56.3039C28.3102 55.6565 28.4743 55.0629 28.8299 54.4694L40.4001 34.0198C41.1113 32.7788 42.3695 32.1313 43.6551 32.1313C44.9133 32.1313 46.1715 32.7518 46.8827 34.0198L58.4803 54.4694C58.8359 55.0629 59 55.6565 59 56.3039C59 58.3543 57.5229 60 55.2253 60H32.0575ZM43.6551 49.5593C44.6671 49.5593 45.433 48.8309 45.4604 47.8597L45.6792 40.5216C45.7065 39.3345 44.8586 38.5252 43.6551 38.5252C42.4242 38.5252 41.5763 39.3615 41.631 40.5216L41.8498 47.8597C41.8771 48.8309 42.6157 49.5593 43.6551 49.5593ZM43.6551 56.0072C44.9954 56.0072 46.0895 54.982 46.0895 53.6601C46.0895 52.3651 44.9954 51.3129 43.6551 51.3129C42.3148 51.3129 41.2207 52.3381 41.2207 53.6601C41.2207 54.982 42.3148 56.0072 43.6551 56.0072Z" fill="#5E0B0B"/>
</svg>
