<svg width="60" height="60" viewBox="0 0 60 60" fill="none" xmlns="http://www.w3.org/2000/svg">
<path d="M24.0171 54.9235C23.5054 54.9235 22.738 54.7345 22.0275 54.3564C5.71293 45.8776 0 42.0162 0 32.1872V11.7462C0 8.55985 1.33586 7.39874 4.12127 6.29163C7.27617 5.0495 17.9631 1.29613 21.0611 0.486049C21.9706 0.243024 23.0507 0 24.0171 0C24.955 0 26.0351 0.189019 26.973 0.486049C30.0711 1.45815 40.7295 5.0225 43.8844 6.29163C46.6982 7.42574 48.0057 8.55985 48.0057 11.7462V28.5959C47.153 28.4608 46.2435 28.3798 45.334 28.3798C44.4529 28.3798 43.5718 28.4608 42.6622 28.5959V12.6103C42.6622 11.6652 42.4633 11.2601 41.6675 10.9901C37.4041 9.53195 29.3036 6.80468 25.495 5.37354C25.0403 5.23852 24.756 5.15752 24.5002 5.13051V49.1719C24.8129 49.0909 25.154 48.9289 25.6087 48.6589L26.8309 47.9028C27.0014 49.766 27.513 51.5211 28.252 53.1413L26.0066 54.3564C25.2676 54.7345 24.5002 54.9235 24.0171 54.9235ZM45.3624 60C37.3472 60 30.7248 53.7354 30.7248 46.0936C30.7248 38.5059 37.3472 32.2142 45.3624 32.2142C53.3775 32.2142 60 38.4788 60 46.0936C60 53.7084 53.2923 60 45.3624 60ZM43.6002 53.6274C44.2823 53.6274 44.9361 53.3573 45.2771 52.9253L53.4912 42.1512C53.7755 41.8002 53.9176 41.3681 53.9176 41.0441C53.9176 39.964 52.9796 39.1269 51.8996 39.1269C51.189 39.1269 50.5637 39.4779 50.1942 39.964L43.4865 48.7939L40.1895 45.3645C39.8484 45.0135 39.3368 44.7435 38.6831 44.7435C37.5746 44.7435 36.6367 45.5266 36.6367 46.6877C36.6367 47.1467 36.8356 47.6598 37.2051 48.0648L41.9801 53.0063C42.4064 53.4383 43.0602 53.6274 43.6002 53.6274Z" fill="#143D95"/>
</svg>
