<svg width="67" height="60" viewBox="0 0 67 60" fill="none" xmlns="http://www.w3.org/2000/svg">
<path fill-rule="evenodd" clip-rule="evenodd" d="M9.61751 54.6439H35.3326C34.277 52.8878 33.5147 50.9561 33.1628 48.9073H9.96936C7.27177 48.9073 5.74705 47.4732 5.74705 44.6341V9.98049C5.74705 7.14146 7.27177 5.73659 9.96936 5.73659H44.7742C47.5011 5.73659 48.9965 7.14146 48.9965 9.98049V25.9317C49.9348 25.7854 50.9024 25.6976 51.87 25.6976C52.8376 25.6976 53.8052 25.7854 54.7435 25.9317V9.51219C54.7435 3.24878 51.4302 0 45.126 0H9.61751C3.28403 0 0 3.24878 0 9.51219V45.1317C0 51.3658 3.28403 54.6439 9.61751 54.6439ZM11.5821 19.1707C11.5821 20.3707 12.5204 21.3073 13.7519 21.3073H26.3602C27.2398 23.6195 29.4683 25.2585 32.0486 25.2585C34.6289 25.2585 36.8573 23.6195 37.7077 21.3073H41.109C42.1939 21.3073 43.1615 20.3707 43.1615 19.1707C43.1615 18 42.1939 17.0634 41.109 17.0634H37.737C36.8867 14.7512 34.6289 13.1122 32.0486 13.1122C29.4389 13.1122 27.2105 14.7512 26.3602 17.0634H13.7519C12.5204 17.0634 11.5821 18 11.5821 19.1707ZM34.7462 19.1415C34.7462 20.6927 33.5733 21.8927 32.0486 21.8927C30.4945 21.8927 29.3217 20.6927 29.3217 19.1415C29.3217 17.6195 30.4945 16.4488 32.0486 16.4488C33.5733 16.4488 34.7462 17.6195 34.7462 19.1415ZM11.5821 34.9463C11.5821 36.1463 12.5204 37.0829 13.6346 37.0829H17.0066C17.8862 39.3659 20.1147 41.0049 22.695 41.0049C25.3046 41.0049 27.533 39.3659 28.4127 37.0829H34.3943C35.0394 35.5317 35.9484 34.1268 36.9746 32.839H28.4127C27.5624 30.5268 25.3046 28.8585 22.695 28.8585C20.0853 28.8585 17.8569 30.5268 17.0066 32.839H13.6346C12.5204 32.839 11.5821 33.7756 11.5821 34.9463ZM36.7987 44.9268C36.7987 53.2098 43.6306 60 51.8993 60C60.0801 60 67 53.1512 67 44.9268C67 36.6732 60.168 29.8537 51.8993 29.8537C43.6306 29.8537 36.7987 36.6732 36.7987 44.9268ZM25.4512 34.9171C25.4512 36.4683 24.249 37.6683 22.695 37.6683C21.1702 37.6683 19.9681 36.4683 19.9681 34.9171C19.9681 33.3951 21.1702 32.1951 22.695 32.1951C24.249 32.1951 25.4512 33.3951 25.4512 34.9171ZM50.3549 52.425C51.0262 52.425 51.6696 52.155 52.0053 51.7229L60.0894 40.9488C60.3692 40.5978 60.509 40.1658 60.509 39.8417C60.509 38.7616 59.5859 37.9245 58.523 37.9245C57.8236 37.9245 57.2082 38.2756 56.8446 38.7616L50.243 47.5915L46.9981 44.1622C46.6624 43.8111 46.1589 43.5411 45.5156 43.5411C44.4246 43.5411 43.5015 44.3242 43.5015 45.4853C43.5015 45.9443 43.6973 46.4574 44.061 46.8624L48.7604 51.8039C49.18 52.236 49.8234 52.425 50.3549 52.425Z" fill="#143D95"/>
</svg>
