<svg width="67" height="60" viewBox="0 0 67 60" fill="none" xmlns="http://www.w3.org/2000/svg">
<path fill-rule="evenodd" clip-rule="evenodd" d="M35.3326 54.6439H9.61751C3.28403 54.6439 0 51.3658 0 45.1317V9.51219C0 3.24878 3.28403 0 9.61751 0H45.126C51.4302 0 54.7435 3.24878 54.7435 9.51219V25.9317C53.8052 25.7854 52.8376 25.6976 51.87 25.6976C50.9024 25.6976 49.9348 25.7854 48.9965 25.9317V9.98049C48.9965 7.14146 47.5011 5.73659 44.7742 5.73659H9.96937C7.27177 5.73659 5.74705 7.14146 5.74705 9.98049V44.6341C5.74705 47.4732 7.27177 48.9073 9.96937 48.9073H33.1628C33.5147 50.9561 34.277 52.8878 35.3326 54.6439ZM13.7519 21.3073C12.5204 21.3073 11.5821 20.3707 11.5821 19.1707C11.5821 18 12.5204 17.0634 13.7519 17.0634H26.3602C27.2105 14.7512 29.439 13.1122 32.0486 13.1122C34.6289 13.1122 36.8867 14.7512 37.737 17.0634H41.109C42.1939 17.0634 43.1615 18 43.1615 19.1707C43.1615 20.3707 42.1939 21.3073 41.109 21.3073H37.7077C36.8573 23.6195 34.6289 25.2585 32.0486 25.2585C29.4683 25.2585 27.2398 23.6195 26.3602 21.3073H13.7519ZM32.0486 21.8927C33.5733 21.8927 34.7462 20.6927 34.7462 19.1415C34.7462 17.6195 33.5733 16.4488 32.0486 16.4488C30.4945 16.4488 29.3217 17.6195 29.3217 19.1415C29.3217 20.6927 30.4945 21.8927 32.0486 21.8927ZM13.6346 37.0829C12.5203 37.0829 11.5821 36.1463 11.5821 34.9463C11.5821 33.7756 12.5203 32.839 13.6346 32.839H17.0066C17.8569 30.5268 20.0853 28.8585 22.695 28.8585C25.3046 28.8585 27.5624 30.5268 28.4127 32.839H36.9746C35.9484 34.1268 35.0394 35.5317 34.3943 37.0829H28.4127C27.533 39.3659 25.3046 41.0049 22.695 41.0049C20.1147 41.0049 17.8862 39.3659 17.0066 37.0829H13.6346ZM51.8993 60C43.6306 60 36.7987 53.2098 36.7987 44.9268C36.7987 36.6732 43.6306 29.8537 51.8993 29.8537C60.168 29.8537 67 36.6732 67 44.9268C67 53.1512 60.0801 60 51.8993 60ZM22.695 37.6683C24.249 37.6683 25.4512 36.4683 25.4512 34.9171C25.4512 33.3951 24.249 32.1951 22.695 32.1951C21.1702 32.1951 19.9681 33.3951 19.9681 34.9171C19.9681 36.4683 21.1702 37.6683 22.695 37.6683ZM53.6411 46.1921C53.6137 47.1634 52.8472 47.8918 51.8342 47.8918C50.7939 47.8918 50.0548 47.1634 50.0274 46.1921L49.8084 38.854C49.7536 37.6939 50.6023 36.8576 51.8342 36.8576C53.0388 36.8576 53.8875 37.667 53.8601 38.854L53.6411 46.1921ZM54.2707 51.9925C54.2707 53.3144 53.1757 54.3396 51.8342 54.3396C50.4928 54.3396 49.3977 53.3144 49.3977 51.9925C49.3977 50.6706 50.4928 49.6454 51.8342 49.6454C53.1757 49.6454 54.2707 50.6975 54.2707 51.9925Z" fill="#5E0B0B"/>
</svg>
