<svg width="55" height="53" viewBox="0 0 55 53" fill="none" xmlns="http://www.w3.org/2000/svg">
<path d="M8.94201 53C2.99016 53 0 50.0348 0 44.1043V8.9245C0 2.99403 2.99016 0 8.94201 0H46.058C52.0383 0 55 2.99403 55 8.9245V44.1043C55 50.0348 52.0383 53 46.058 53H8.94201ZM8.99896 48.365H46.001C48.8203 48.365 50.4151 46.8392 50.4151 43.8452V9.1836C50.4151 6.18957 48.8203 4.63498 46.001 4.63498H8.99896C6.15119 4.63498 4.58492 6.18957 4.58492 9.1836V43.8452C4.58492 46.8392 6.15119 48.365 8.99896 48.365ZM44.0361 44.4498H34.0214C32.2273 44.4498 31.5154 43.7013 31.5154 41.8588V11.17C31.5154 9.32754 32.2273 8.57903 34.0214 8.57903H44.0361C45.8302 8.57903 46.5421 9.32754 46.5421 11.17V41.8588C46.5421 43.7013 45.8302 44.4498 44.0361 44.4498ZM8.94201 26.6008C8.91353 25.5644 9.79634 24.6431 10.7931 24.6431H18.7668L22.9815 24.7871L20.6179 22.5416L17.5423 19.4612C17.1721 19.1157 17.0012 18.6263 17.0012 18.1369C17.0012 17.0717 17.7132 16.3232 18.6814 16.3232C19.251 16.3232 19.6781 16.5535 20.0483 17.0141L27.6234 25.1901C28.1075 25.7083 28.2499 26.0826 28.2499 26.6008C28.2499 27.119 28.1075 27.4932 27.6234 28.0114L20.0483 36.1874C19.6781 36.6192 19.251 36.8495 18.6814 36.8495C17.7132 36.8495 17.0012 36.101 17.0012 35.0934C17.0012 34.604 17.1721 34.0858 17.5423 33.7404L20.6179 30.66L22.9815 28.4144L18.7668 28.5296H10.7931C9.79634 28.5296 8.97049 27.6372 8.94201 26.6008Z" fill="#143D95"/>
</svg>
