<svg width="67" height="61" viewBox="0 0 67 61" fill="none" xmlns="http://www.w3.org/2000/svg">
<path d="M9.00095 61C3.45459 61 0 56.9948 0 52.0042C0 50.4784 0.412015 48.9208 1.26774 47.4268L25.7985 4.51381C27.4782 1.52579 30.4574 0 33.5 0C36.5109 0 39.4901 1.52579 41.2015 4.51381L65.7323 47.4268C66.5563 48.889 67 50.4784 67 52.0042C67 56.9948 63.5137 61 57.9991 61H9.00095ZM33.5317 39.2256C35.3065 39.2256 36.3524 38.2084 36.4158 36.2694L36.8912 20.2804C36.9546 18.3413 35.4967 16.9745 33.5 16.9745C31.4399 16.9745 30.0454 18.3413 30.1088 20.2804L30.5525 36.3012C30.6159 38.1767 31.6618 39.2256 33.5317 39.2256ZM33.5317 50.1605C35.6235 50.1605 37.3983 48.6347 37.3983 46.5367C37.3983 44.4388 35.6552 42.913 33.5317 42.913C31.3765 42.913 29.6334 44.4706 29.6334 46.5367C29.6334 48.6347 31.4082 50.1605 33.5317 50.1605Z" fill="white"/>
</svg>
