<svg width="576" height="127" viewBox="0 0 576 127" fill="none" xmlns="http://www.w3.org/2000/svg">
<path d="M37.1384 26.0449V95.1784C34.1845 92.7835 31.6093 90.2465 29.4229 87.5725C22.1972 78.7488 18.6828 67.9107 18.6828 54.4544V32.2251L37.1384 26.0449ZM55.8212 0L0 18.6978V54.4594C0 91.4186 21.3843 113.592 55.8212 126.571V0Z" fill="black"/>
<path d="M62.312 0V126.571C97.2593 113.866 118.595 89.5108 118.126 54.4594H90.2163V73.1572H96.6433C93.6848 82.0621 88.323 89.2621 80.9872 95.1835V26.05L99.4403 32.2302V45.1131H118.121V18.7028L62.312 0Z" fill="black"/>
<path d="M188.033 99.6213C177.567 99.6213 168.917 96.1213 162.083 89.1213C155.283 82.088 151.883 73.3213 151.883 62.8213C151.883 52.288 155.283 43.5046 162.083 36.4713C168.917 29.438 177.567 25.9213 188.033 25.9213C198.433 25.9213 207.067 29.4546 213.933 36.5213C220.833 43.5546 224.283 52.3046 224.283 62.7713C224.283 73.1713 220.833 81.9213 213.933 89.0213C207.033 96.088 198.4 99.6213 188.033 99.6213ZM188.033 92.4713C196.4 92.4713 203.233 89.6546 208.533 84.0213C213.867 78.3546 216.533 71.2713 216.533 62.7713C216.533 54.238 213.867 47.1546 208.533 41.5213C203.2 35.888 196.367 33.0713 188.033 33.0713C179.667 33.0713 172.833 35.9046 167.533 41.5713C162.267 47.2046 159.633 54.2713 159.633 62.7713C159.633 71.338 162.267 78.438 167.533 84.0713C172.833 89.6713 179.667 92.4713 188.033 92.4713ZM234.114 98.5713V46.3713H241.364V55.2713L240.264 54.4213H241.414C243.047 51.8213 245.397 49.6546 248.464 47.9213C251.564 46.188 254.897 45.3213 258.464 45.3213C264.397 45.3213 268.997 47.1713 272.264 50.8713C275.564 54.538 277.214 59.3546 277.214 65.3213V98.5713L269.864 98.5713V66.6213C269.864 62.3213 268.814 58.8713 266.714 56.2713C264.647 53.6713 261.347 52.3713 256.814 52.3713C252.614 52.3713 249.014 53.9046 246.014 56.9713C243.014 60.0046 241.514 63.9046 241.514 68.6713V98.5713H234.114ZM321.863 99.7213C311.53 99.688 302.83 96.188 295.763 89.2213C288.696 82.2546 285.163 73.4713 285.163 62.8713C285.163 51.9713 288.663 43.0713 295.663 36.1713C302.696 29.2713 311.48 25.8213 322.013 25.8213C326.213 25.8213 329.863 26.2546 332.963 27.1213C336.063 27.988 338.846 29.1213 341.313 30.5213C343.78 31.9213 345.83 33.438 347.463 35.0713C349.13 36.7046 349.963 37.5213 349.963 37.5213L340.963 47.3213C340.963 47.3213 340.346 46.7046 339.113 45.4713C337.88 44.238 336.446 43.1546 334.813 42.2213C333.213 41.288 331.38 40.5213 329.313 39.9213C327.246 39.3213 324.846 39.0213 322.113 39.0213C315.646 39.0213 310.18 41.238 305.713 45.6713C301.28 50.0713 299.063 55.9213 299.063 63.2213C299.063 70.1546 301.246 75.8546 305.613 80.3213C309.98 84.7546 315.646 86.9713 322.613 86.9713C329.613 86.9713 334.88 85.2046 338.413 81.6713C341.946 78.138 343.946 73.9046 344.413 68.9713V69.4713H321.413V58.8713L357.863 58.8713L357.913 64.3213C357.913 74.9546 354.596 83.5213 347.963 90.0213C341.363 96.488 332.663 99.7213 321.863 99.7213ZM383.245 99.7213C377.512 99.7213 373.012 98.0213 369.745 94.6213C366.478 91.188 364.845 86.488 364.845 80.5213V46.1713H378.045V77.1213C378.045 80.7213 378.862 83.488 380.495 85.4213C382.128 87.3546 384.578 88.3213 387.845 88.3213C391.345 88.3213 394.162 87.1046 396.295 84.6713C398.428 82.2046 399.495 79.138 399.495 75.4713V46.1713H412.695V98.5713H399.945V84.4713L406.445 90.9713H399.895C398.228 93.738 395.995 95.888 393.195 97.4213C390.395 98.9546 387.078 99.7213 383.245 99.7213ZM439.903 99.7213C434.236 99.7213 429.553 98.2046 425.853 95.1713C422.153 92.1046 420.303 88.088 420.303 83.1213C420.303 77.8546 422.353 73.6546 426.453 70.5213C430.586 67.388 435.969 65.8213 442.603 65.8213C445.136 65.8213 447.619 66.088 450.053 66.6213C452.519 67.1213 454.719 67.8213 456.653 68.7213V65.8213C456.653 62.5546 455.503 60.0213 453.203 58.2213C450.936 56.388 448.169 55.4713 444.903 55.4713C443.136 55.4713 441.519 55.7046 440.053 56.1713C438.586 56.6046 437.236 57.2213 436.003 58.0213C434.803 58.8213 433.603 59.788 432.403 60.9213C431.203 62.0546 430.603 62.6213 430.603 62.6213L422.053 55.5213C422.053 55.5213 422.903 54.738 424.603 53.1713C426.336 51.5713 428.253 50.138 430.353 48.8713C432.486 47.6046 434.836 46.6546 437.403 46.0213C440.003 45.3546 443.036 45.0213 446.503 45.0213C453.503 45.0213 459.119 46.8046 463.353 50.3713C467.62 53.938 469.753 58.9213 469.753 65.3213V98.5713H457.153V87.9713L459.753 90.8713H457.103C455.236 93.738 452.836 95.938 449.903 97.4713C447.003 98.9713 443.67 99.7213 439.903 99.7213ZM443.353 90.0213C447.42 90.0213 450.653 88.638 453.053 85.8713C455.453 83.0713 456.653 80.1713 456.653 77.1713V76.6713C455.32 75.8046 453.603 75.1046 451.503 74.5713C449.436 74.038 447.186 73.7713 444.753 73.7713C441.253 73.7713 438.453 74.488 436.353 75.9213C434.253 77.3546 433.203 79.4213 433.203 82.1213C433.203 84.6213 434.136 86.5713 436.003 87.9713C437.903 89.338 440.353 90.0213 443.353 90.0213ZM480 98.5713V46.1713H492.3V55.4713L491.3 54.3213H492.35C493.984 51.2213 496.034 48.9046 498.5 47.3713C501 45.8046 503.55 45.0213 506.15 45.0213C506.817 45.0213 507.534 45.088 508.3 45.2213C509.1 45.3213 509.8 45.4546 510.4 45.6213C511.034 45.7546 511.35 45.8213 511.35 45.8213V57.9713C511.35 57.9713 511.017 57.888 510.35 57.7213C509.717 57.5213 508.917 57.3546 507.95 57.2213C507.017 57.088 506.184 57.0213 505.45 57.0213C502.117 57.0213 499.234 58.2546 496.8 60.7213C494.4 63.188 493.2 66.5713 493.2 70.8713V98.5713H480ZM538.367 99.7213C531.334 99.7213 525.434 97.1713 520.667 92.0713C515.9 86.9713 513.517 80.488 513.517 72.6213C513.517 64.588 515.934 57.988 520.767 52.8213C525.634 47.6546 531.667 45.0713 538.867 45.0713C542.5 45.0713 545.917 45.8213 549.117 47.3213C552.317 48.788 554.767 50.838 556.467 53.4713L556.067 53.1213V26.9713L569.217 26.9713V98.5713H556.817V89.3713L557.717 89.8713L557.167 90.5713C555.467 93.4046 552.934 95.638 549.567 97.2713C546.234 98.9046 542.5 99.7213 538.367 99.7213ZM541.517 88.3213C545.917 88.3213 549.517 86.8213 552.317 83.8213C555.15 80.788 556.567 77.0213 556.567 72.5213C556.567 67.8546 555.117 64.0546 552.217 61.1213C549.35 58.1546 545.784 56.6713 541.517 56.6713C537.117 56.6713 533.467 58.1213 530.567 61.0213C527.7 63.9213 526.267 67.7546 526.267 72.5213C526.267 77.288 527.717 81.1213 530.617 84.0213C533.517 86.888 537.15 88.3213 541.517 88.3213Z" fill="black"/>
</svg>
