<svg width="418" height="74" viewBox="0 0 418 74" fill="none" xmlns="http://www.w3.org/2000/svg">
<path d="M36.15 73.8C25.6833 73.8 17.0333 70.3 10.2 63.3C3.4 56.2667 1.49012e-07 47.5 1.49012e-07 37C1.49012e-07 26.4667 3.4 17.6833 10.2 10.65C17.0333 3.61666 25.6833 0.0999966 36.15 0.0999966C46.55 0.0999966 55.1833 3.63333 62.05 10.7C68.95 17.7333 72.4 26.4833 72.4 36.95C72.4 47.35 68.95 56.1 62.05 63.2C55.15 70.2667 46.5167 73.8 36.15 73.8ZM36.15 66.65C44.5167 66.65 51.35 63.8333 56.65 58.2C61.9833 52.5333 64.65 45.45 64.65 36.95C64.65 28.4167 61.9833 21.3333 56.65 15.7C51.3167 10.0667 44.4833 7.25 36.15 7.25C27.7833 7.25 20.95 10.0833 15.65 15.75C10.3833 21.3833 7.75 28.45 7.75 36.95C7.75 45.5167 10.3833 52.6167 15.65 58.25C20.95 63.85 27.7833 66.65 36.15 66.65ZM82.2305 72.75V20.55H89.4805V29.45L88.3805 28.6H89.5305C91.1638 26 93.5138 23.8333 96.5805 22.1C99.6805 20.3667 103.014 19.5 106.58 19.5C112.514 19.5 117.114 21.35 120.38 25.05C123.68 28.7167 125.33 33.5333 125.33 39.5V72.75L117.98 72.75V40.8C117.98 36.5 116.93 33.05 114.83 30.45C112.764 27.85 109.464 26.55 104.93 26.55C100.73 26.55 97.1305 28.0833 94.1305 31.15C91.1305 34.1833 89.6305 38.0833 89.6305 42.85V72.75H82.2305ZM169.98 73.9C159.646 73.8667 150.946 70.3667 143.88 63.4C136.813 56.4333 133.28 47.65 133.28 37.05C133.28 26.15 136.78 17.25 143.78 10.35C150.813 3.45 159.596 -2.14577e-06 170.13 -2.14577e-06C174.33 -2.14577e-06 177.98 0.433332 181.08 1.3C184.18 2.16666 186.963 3.3 189.43 4.7C191.896 6.1 193.946 7.61666 195.58 9.24999C197.246 10.8833 198.08 11.7 198.08 11.7L189.08 21.5C189.08 21.5 188.463 20.8833 187.23 19.65C185.996 18.4167 184.563 17.3333 182.93 16.4C181.33 15.4667 179.496 14.7 177.43 14.1C175.363 13.5 172.963 13.2 170.23 13.2C163.763 13.2 158.296 15.4167 153.83 19.85C149.396 24.25 147.18 30.1 147.18 37.4C147.18 44.3333 149.363 50.0333 153.73 54.5C158.096 58.9333 163.763 61.15 170.73 61.15C177.73 61.15 182.996 59.3833 186.53 55.85C190.063 52.3167 192.063 48.0833 192.53 43.15V43.65H169.53V33.05L205.98 33.05L206.03 38.5C206.03 49.1333 202.713 57.7 196.08 64.2C189.48 70.6667 180.78 73.9 169.98 73.9ZM231.362 73.9C225.628 73.9 221.128 72.2 217.862 68.8C214.595 65.3667 212.962 60.6667 212.962 54.7V20.35H226.162V51.3C226.162 54.9 226.978 57.6667 228.612 59.6C230.245 61.5333 232.695 62.5 235.962 62.5C239.462 62.5 242.278 61.2833 244.412 58.85C246.545 56.3833 247.612 53.3167 247.612 49.65V20.35H260.812V72.75H248.062V58.65L254.562 65.15H248.012C246.345 67.9167 244.112 70.0667 241.312 71.6C238.512 73.1333 235.195 73.9 231.362 73.9ZM288.02 73.9C282.353 73.9 277.67 72.3833 273.97 69.35C270.27 66.2833 268.42 62.2667 268.42 57.3C268.42 52.0333 270.47 47.8333 274.57 44.7C278.703 41.5667 284.086 40 290.72 40C293.253 40 295.736 40.2667 298.17 40.8C300.636 41.3 302.836 42 304.77 42.9V40C304.77 36.7333 303.62 34.2 301.32 32.4C299.053 30.5667 296.286 29.65 293.02 29.65C291.253 29.65 289.636 29.8833 288.17 30.35C286.703 30.7833 285.353 31.4 284.12 32.2C282.92 33 281.72 33.9667 280.52 35.1C279.32 36.2333 278.72 36.8 278.72 36.8L270.17 29.7C270.17 29.7 271.02 28.9167 272.72 27.35C274.453 25.75 276.37 24.3167 278.47 23.05C280.603 21.7833 282.953 20.8333 285.52 20.2C288.12 19.5333 291.153 19.2 294.62 19.2C301.62 19.2 307.236 20.9833 311.47 24.55C315.736 28.1167 317.87 33.1 317.87 39.5V72.75H305.27V62.15L307.87 65.05H305.22C303.353 67.9167 300.953 70.1167 298.02 71.65C295.12 73.15 291.786 73.9 288.02 73.9ZM291.47 64.2C295.536 64.2 298.77 62.8167 301.17 60.05C303.57 57.25 304.77 54.35 304.77 51.35V50.85C303.436 49.9833 301.72 49.2833 299.62 48.75C297.553 48.2167 295.303 47.95 292.87 47.95C289.37 47.95 286.57 48.6667 284.47 50.1C282.37 51.5333 281.32 53.6 281.32 56.3C281.32 58.8 282.253 60.75 284.12 62.15C286.02 63.5167 288.47 64.2 291.47 64.2ZM328.117 72.75V20.35H340.417V29.65L339.417 28.5H340.467C342.101 25.4 344.151 23.0833 346.617 21.55C349.117 19.9833 351.667 19.2 354.267 19.2C354.934 19.2 355.651 19.2667 356.417 19.4C357.217 19.5 357.917 19.6333 358.517 19.8C359.151 19.9333 359.467 20 359.467 20V32.15C359.467 32.15 359.134 32.0667 358.467 31.9C357.834 31.7 357.034 31.5333 356.067 31.4C355.134 31.2667 354.301 31.2 353.567 31.2C350.234 31.2 347.351 32.4333 344.917 34.9C342.517 37.3667 341.317 40.75 341.317 45.05V72.75H328.117ZM386.484 73.9C379.45 73.9 373.55 71.35 368.784 66.25C364.017 61.15 361.634 54.6667 361.634 46.8C361.634 38.7667 364.05 32.1667 368.884 27C373.75 21.8333 379.784 19.25 386.984 19.25C390.617 19.25 394.034 20 397.234 21.5C400.434 22.9667 402.884 25.0167 404.584 27.65L404.184 27.3V1.15L417.334 1.15V72.75H404.934V63.55L405.834 64.05L405.284 64.75C403.584 67.5833 401.05 69.8167 397.684 71.45C394.35 73.0833 390.617 73.9 386.484 73.9ZM389.634 62.5C394.034 62.5 397.634 61 400.434 58C403.267 54.9667 404.684 51.2 404.684 46.7C404.684 42.0333 403.234 38.2333 400.334 35.3C397.467 32.3333 393.9 30.85 389.634 30.85C385.234 30.85 381.584 32.3 378.684 35.2C375.817 38.1 374.384 41.9333 374.384 46.7C374.384 51.4667 375.834 55.3 378.734 58.2C381.634 61.0667 385.267 62.5 389.634 62.5Z" fill="#5E0B0B"/>
</svg>
